<svg xmlns="http://www.w3.org/2000/svg" viewBox="0 0 663.36 283.46"><defs><style>.cls-1{fill:#2799a1;}.cls-2{fill:#edc82a;}.cls-3{fill:#d45f5f;}.cls-4{fill:#73a942;}.cls-5{fill:#a24d8e;}.cls-6{fill:#8fc640;}.cls-7{fill:#58595b;}</style></defs><g id="Layer_2" data-name="Layer 2"><g id="Layer_1-2" data-name="Layer 1"><g id="Group_32" data-name="Group 32"><path id="Path_54" data-name="Path 54" class="cls-1" d="M378.75,17.9a7.31,7.31,0,0,1-14.62,0h0a7.31,7.31,0,0,1,7.29-7.31h0a7.32,7.32,0,0,1,7.31,7.31"/></g><g id="Group_33" data-name="Group 33"><path id="Path_55" data-name="Path 55" class="cls-2" d="M355.58,21.15a7.3,7.3,0,0,1-7.3,7.31h0a7.31,7.31,0,1,1,7.3-7.31"/></g><g id="Group_34" data-name="Group 34"><path id="Path_56" data-name="Path 56" class="cls-3" d="M333,32a7.32,7.32,0,0,1-14.63,0h0a7.3,7.3,0,0,1,7.31-7.3h0A7.31,7.31,0,0,1,333,32"/></g><g id="Group_35" data-name="Group 35"><path id="Path_57" data-name="Path 57" class="cls-4" d="M387.28,21.15a7.31,7.31,0,0,0,7.31,7.31h0a7.3,7.3,0,0,0,7.3-7.3h0a7.31,7.31,0,0,0-14.62,0"/></g><g id="Group_36" data-name="Group 36"><path id="Path_58" data-name="Path 58" class="cls-5" d="M409.87,32a7.31,7.31,0,1,0,14.61,0h0a7.3,7.3,0,0,0-7.3-7.3h0a7.29,7.29,0,0,0-7.29,7.3"/></g><g id="Group_37" data-name="Group 37"><path id="Path_59" data-name="Path 59" class="cls-6" d="M377.64,125.12H366.87l-2.22-72.74h15.21Z"/></g><g id="Group_38" data-name="Group 38"><path id="Path_60" data-name="Path 60" class="cls-6" d="M301.52,62a25.77,25.77,0,1,0,25.69,25.86A25.83,25.83,0,0,0,301.52,62m0,62.15a36.38,36.38,0,1,1,36.27-36.29,36.34,36.34,0,0,1-36.27,36.29"/></g><g id="Group_39" data-name="Group 39"><path id="Path_61" data-name="Path 61" class="cls-6" d="M443,62.14a25.69,25.69,0,1,0,25.71,25.7A25.72,25.72,0,0,0,443,62.14m0,62a36.3,36.3,0,1,1,24.9-62.88V0h10.75V123H467.91v-8.63a36.4,36.4,0,0,1-24.9,9.77"/></g><g id="Group_40" data-name="Group 40"><path id="Path_62" data-name="Path 62" class="cls-6" d="M513.33,78h48.18C559.11,71.4,552,62,537.45,62,521.73,62,515.57,72.24,513.33,78m24.12,46.26C516,124.3,501,109.3,501,87.84c0-21.13,15.32-36.46,36.45-36.46s36.29,14.73,36.29,35v2.1H511.65c.81,15.37,10.76,25.2,25.8,25.2,10.34,0,18-4.33,22.76-12.88l.93-1.69,9.65,4.44-1,1.93c-3.52,7-12.39,18.82-32.38,18.82"/></g><g id="Group_41" data-name="Group 41"><path id="Path_63" data-name="Path 63" class="cls-6" d="M628.18,62.14a25.69,25.69,0,1,0,25.71,25.7,25.72,25.72,0,0,0-25.71-25.7m0,62a36.3,36.3,0,1,1,24.41-63.23v-8.4h10.77V123H652.59v-8.23a36.1,36.1,0,0,1-24.41,9.37"/></g><g id="Group_42" data-name="Group 42"><path id="Path_64" data-name="Path 64" class="cls-6" d="M234.86,38.7a5.71,5.71,0,0,1-1.59-.23c-3.87-.83-5.9-2.74-5.9-5.67,0-2.58,1.65-5.43,5.19-8.95,3.35-3.59,6-5.43,8.47-5.93a5.54,5.54,0,0,1,1.15-.12,7.58,7.58,0,0,1,6,3.36,5,5,0,0,1,.7,4.57c-.54,2.61-2.42,5.37-5.91,8.67-3.51,3.07-5.85,4.3-8.16,4.3m-29.13,77.62c-78.79,16.75-175.32,52.07-193.29,97.85-4.14,10.42-2.37,22.11,5,32.91C28.9,264,51,274.94,73.72,274.94c1,0,2,0,2.94-.05,30.39-1.22,59.85-24.47,87.57-69.12,22-35.41,36.27-74.1,41.5-89.45M73.05,283.46c-25,0-50.91-13.82-64.43-34.38C-.55,235.16-2.48,220.23,3.19,207c10.19-23.73,41.93-46.23,94.36-66.9,39.48-15.56,82.94-26.89,110.91-32.39,5.92-14.16,14.9-46.43,15-51.4L223.2,56l.12-1.23c.55-4.16,6-8,8.85-9a9,9,0,0,1,2.48-.37,5.59,5.59,0,0,1,4.17,1.67,5.08,5.08,0,0,1,1.27,4,12.1,12.1,0,0,1-2.41,5.65c-1.74,4.65-4.7,13.73-7.56,22.52-3,9.08-6,18.51-8.77,26.37,17.13-2.78,37.75-4.61,52.45-4.61A83.88,83.88,0,0,1,289,102c5.22,1.07,10.83,5.75,13.35,11.11a12.38,12.38,0,0,1,0,11.34c-3,5.49-6.58,8.3-10.73,11.56-.82.64-1.65,1.31-2.51,2-1.88,1.46-3.22,2.1-4.37,2.1a2.8,2.8,0,0,1-2.53-1.51c-.85-2.13.65-4,2.21-5.61,4.82-4.43,8.82-10.19,10.28-14.75.69-2.21.58-3.93-.28-5.24-1.08-1.56-3.32-2.52-6.49-2.8-3.41-.34-8.3-.53-14.17-.53-16.68,0-40.11,1.45-55.64,4.66-14.84,42.33-31.42,77.27-49.25,103.9-27.54,41-58.34,62.9-91.56,65.06-1.42.08-2.83.13-4.26.13"/></g><path class="cls-7" d="M455.59,178.44A21,21,0,0,1,461,164.33a19.1,19.1,0,0,1,6.18-4.53,18.58,18.58,0,0,1,7.93-1.66,22.51,22.51,0,0,1,7.27,1.1,23.65,23.65,0,0,1,6.11,3.11,2.46,2.46,0,0,1,1.15,2.15,2.55,2.55,0,0,1-.79,1.87,2.58,2.58,0,0,1-1.89.79,2.69,2.69,0,0,1-1.59-.51,18.5,18.5,0,0,0-4.73-2.27,17.6,17.6,0,0,0-5.39-.84,13.62,13.62,0,0,0-5.76,1.19A14,14,0,0,0,465,168a15.2,15.2,0,0,0-3,4.74,14.84,14.84,0,0,0-1.06,5.58,14.16,14.16,0,0,0,1.76,7.12,12.61,12.61,0,0,0,4.91,4.89,14.74,14.74,0,0,0,7.34,1.77,22.74,22.74,0,0,0,4.58-.46,39.85,39.85,0,0,0,4.15-1l-.08-9.16h-8.19a2.62,2.62,0,0,1-1.89-.79,2.69,2.69,0,0,1,1.89-4.58h10.88a2.61,2.61,0,0,1,1.89.78,2.52,2.52,0,0,1,.79,1.88l.11,13.72v0a2.54,2.54,0,0,1-.48,1.45,2.6,2.6,0,0,1-1.21,1,47.67,47.67,0,0,1-5.69,1.82,27,27,0,0,1-6.56.79,20.44,20.44,0,0,1-10.06-2.45,18,18,0,0,1-6.94-6.74A19.16,19.16,0,0,1,455.59,178.44Z"/><path class="cls-7" d="M531.31,195.28a2.46,2.46,0,0,1-.76,1.81,2.32,2.32,0,0,1-1.66.77,1.87,1.87,0,0,1-1.31-.53,7.71,7.71,0,0,1-.78-.79,20.82,20.82,0,0,1-4.23-3.91,24.57,24.57,0,0,1-3.05-4.76,15.5,15.5,0,0,0-2.24-3.6,6.3,6.3,0,0,0-2.75-1.83,14,14,0,0,0-4.19-.56l-2.45,0,0,13v.05a2.73,2.73,0,0,1-2.68,2.69,2.51,2.51,0,0,1-1.9-.86,2.89,2.89,0,0,1-.79-2l-.08-33.33a2.51,2.51,0,0,1,.79-1.89,2.67,2.67,0,0,1,1.87-.79l7.14,0h.62a23.46,23.46,0,0,1,8.24,1.35,12.64,12.64,0,0,1,5.72,4.06,10.58,10.58,0,0,1,2.1,6.7,9.65,9.65,0,0,1-1.06,4.59,10.89,10.89,0,0,1-2.78,3.41,14,14,0,0,1-3.71,2.18,19.61,19.61,0,0,1,1.83,2.85q1.56,3,3,5.27a15.07,15.07,0,0,0,3.9,4,2.86,2.86,0,0,1,.82.9A2.54,2.54,0,0,1,531.31,195.28ZM513,164h-5.18l.05,12.84,5.19-.06a17.44,17.44,0,0,0,7.75-1.5,4.88,4.88,0,0,0,2.8-4.65,5.36,5.36,0,0,0-3-5A15.42,15.42,0,0,0,513,164Z"/><path class="cls-7" d="M561.7,158.25a17.84,17.84,0,0,1,7.56,1.59,18.92,18.92,0,0,1,6,4.38,20,20,0,0,1,3.94,6.39,21.13,21.13,0,0,1,1.4,7.67,20.86,20.86,0,0,1-1.38,7.61,19.47,19.47,0,0,1-3.91,6.27,18.14,18.14,0,0,1-6,4.25,19.85,19.85,0,0,1-15.33,0,17.57,17.57,0,0,1-5.94-4.27,19.11,19.11,0,0,1-3.83-6.31,21.62,21.62,0,0,1-1.34-7.69,20.61,20.61,0,0,1,5.35-13.93,18.73,18.73,0,0,1,6-4.36A17.57,17.57,0,0,1,561.7,158.25Zm.11,5.45a12.19,12.19,0,0,0-7,2.07,14.29,14.29,0,0,0-4.78,5.46,16.06,16.06,0,0,0-1.73,7.43,13.52,13.52,0,0,0,1,5.23,14.68,14.68,0,0,0,2.9,4.45,13.81,13.81,0,0,0,4.29,3.06,12.34,12.34,0,0,0,5.19,1.11,12.14,12.14,0,0,0,5.23-1.15,14.59,14.59,0,0,0,4.35-3.12,15,15,0,0,0,3-4.41,12.58,12.58,0,0,0,1.07-5,16,16,0,0,0-1.81-7.59,14.74,14.74,0,0,0-4.88-5.46A12,12,0,0,0,561.81,163.7Z"/><path class="cls-7" d="M592.74,161.33a2.56,2.56,0,0,1,.77-1.82,2.37,2.37,0,0,1,1.78-.81,2.92,2.92,0,0,1,2,.69,2.54,2.54,0,0,1,.79,1.94l.19,19.42c0,3.87.81,6.92,2.34,9.16s4,3.36,7.57,3.36a11.4,11.4,0,0,0,6.28-1.54,8.51,8.51,0,0,0,3.41-4.27,17.53,17.53,0,0,0,1.05-6.31l-.05-19.84v0a2.53,2.53,0,0,1,.78-1.87,2.57,2.57,0,0,1,1.88-.76,2.65,2.65,0,0,1,1.9.76,2.48,2.48,0,0,1,.81,1.87v0l.05,19.84q0,8.06-4,12.76t-12,4.7a15,15,0,0,1-8.57-2.3,14,14,0,0,1-5.08-6.31,24.29,24.29,0,0,1-1.74-9.17l-.19-19.47Z"/><path class="cls-7" d="M639.89,197.62a2.62,2.62,0,0,1-1.89-.77,2.46,2.46,0,0,1-.8-1.84v0l-.05-33.65a2.9,2.9,0,0,1,.69-1.65,2.35,2.35,0,0,1,2-1l8.46,0A19.17,19.17,0,0,1,655.4,160a11.41,11.41,0,0,1,5.1,3.85,10.82,10.82,0,0,1,1.89,6.56,12.27,12.27,0,0,1-2,7.3,11.43,11.43,0,0,1-5.44,4.06,24.51,24.51,0,0,1-7.86,1.42l-4.56.11,0,11.79v0a2.4,2.4,0,0,1-.8,1.82A2.68,2.68,0,0,1,639.89,197.62ZM657,170.38a5.27,5.27,0,0,0-2.37-4.83,12.49,12.49,0,0,0-6.57-1.48h-5.56l0,13.75,4.48-.1a15.68,15.68,0,0,0,7.36-1.62C656.15,175.1,657,173.2,657,170.38Z"/></g></g></svg>