<svg xmlns="http://www.w3.org/2000/svg" fill="none" viewBox="0 0.67 160 39.26">
<path d="M24.7742 0.666992V5.44929H32.0174V23.3945H37.1438V5.44929H44.3871V0.666992H24.7742Z" fill="#081337"/>
<path d="M101.731 18.5385C100.943 18.5385 100.064 18.1397 100.064 16.1918C100.064 14.2438 100.936 13.8995 101.731 13.8995H111.512V18.5375L101.731 18.5385ZM109.263 0.666992H96.1976V5.49106H108.916C110.783 5.49106 111.511 6.33499 111.511 8.51419C111.511 8.52447 111.511 9.13095 111.511 9.317H100.97C96.9617 9.317 94.9678 11.3132 94.9678 15.8227V16.8969C94.9678 21.539 97.033 23.3945 101.188 23.3945H116.645V8.45251C116.645 2.72593 114.744 0.666992 109.263 0.666992" fill="#081337"/>
<path d="M145.086 18.5385C144.302 18.5385 143.419 18.1397 143.419 16.1918C143.419 14.2438 144.292 13.8995 145.086 13.8995H154.875V18.5375L145.086 18.5385ZM152.617 0.666992H139.551V5.49106H152.278C154.137 5.49106 154.873 6.33499 154.873 8.51419V9.317H144.329C140.319 9.317 138.323 11.3132 138.323 15.8227V16.8969C138.323 21.539 140.393 23.3945 144.544 23.3945H160V8.45251C160 2.72593 158.11 0.666992 152.614 0.666992" fill="#081337"/>
<path d="M45.4194 0.666992V5.44929H52.6602V23.3945H57.7916V5.44929H65.0323V0.666992H45.4194Z" fill="#081337"/>
<path d="M117.677 0.666992V5.44929H124.921V23.3945H130.047V5.44929H137.29V0.666992H117.677Z" fill="#081337"/>
<path d="M88.5824 15.5376C88.5824 17.7211 87.8382 18.5619 85.9533 18.5619H77.4995V5.50669H85.9533C87.8393 5.50669 88.5824 6.35271 88.5824 8.53407V15.5376ZM93.9355 15.4349V8.63481C93.9355 2.67257 91.5882 0.666992 86.3009 0.666992H72.2581V23.3945H86.5441C92.1643 23.3945 93.9355 20.6498 93.9355 15.4349" fill="#081337"/>
<path d="M17.1043 17.8399C16.993 17.639 10.0021 4.49617 9.14651 3.20228C8.72402 2.41407 8.07853 1.75773 7.28495 1.30944C6.49137 0.861156 5.5823 0.639334 4.66331 0.669748C2.52944 0.669748 0 1.5809 0 6.52843V23.1371H5.15671V9.28498C5.15671 8.29146 5.09113 6.81876 5.08072 6.52341C5.06927 6.27629 5.08071 6.04422 5.20874 5.9729C5.35655 5.89052 5.50542 6.02815 5.60639 6.21199C5.70736 6.39582 12.186 18.7621 13.5611 20.8527C13.9846 21.6405 14.6301 22.2969 15.4233 22.7462C16.2165 23.1955 17.125 23.4195 18.0443 23.3922C20.1781 23.3922 22.7097 22.47 22.7097 17.5245V0.910852H17.5499V14.7659C17.5499 15.7605 17.6154 17.2392 17.6279 17.5315C17.6404 17.7787 17.6279 18.0027 17.4988 18.082C17.3531 18.1614 17.2032 18.0228 17.1043 17.8399" fill="#081337"/>
<path d="M49.7272 31.1076C50.1573 31.3551 50.5223 31.7041 50.7911 32.1251C51.0598 32.546 51.2245 33.0265 51.271 33.5258H50.1193C50.0758 33.2459 49.978 32.9775 49.8316 32.7362C49.6851 32.4949 49.4929 32.2855 49.2661 32.12C48.7807 31.8063 48.2119 31.6514 47.6368 31.6764C47.2622 31.6707 46.891 31.7497 46.5502 31.9076C46.2095 32.0656 45.9077 32.2986 45.6669 32.5896C45.0803 33.3748 44.7963 34.35 44.8682 35.3324C44.8258 36.2343 45.0559 37.1279 45.5279 37.8935C45.7706 38.2328 46.0959 38.5026 46.4719 38.6765C46.848 38.8505 47.2621 38.9226 47.6739 38.8861C48.3689 38.9115 49.0466 38.6627 49.5646 38.192C49.838 37.891 50.0472 37.536 50.179 37.1491C50.3108 36.7623 50.3623 36.352 50.3303 35.944H47.6399V34.9556H51.4141V39.889H50.6638L50.3797 38.5427C50.0861 38.9044 49.7389 39.2178 49.3505 39.4715C48.7617 39.7888 48.1003 39.9419 47.434 39.9151C46.4751 39.9316 45.548 39.5663 44.8517 38.8975C44.0221 37.9336 43.5973 36.6787 43.6681 35.4013C43.6019 34.1217 44.0147 32.864 44.8239 31.88C45.1782 31.4745 45.6154 31.1523 46.1052 30.936C46.595 30.7197 47.1254 30.6144 47.6594 30.6276C48.3774 30.6078 49.0885 30.7745 49.7251 31.1118L49.7272 31.1076ZM60.1368 33.7512C60.43 34.0896 60.6538 34.4838 60.7952 34.9108C60.9366 35.3378 60.9926 35.7891 60.9602 36.2383C60.9975 37.1665 60.7423 38.0826 60.2315 38.8537C59.9693 39.2063 59.6241 39.4866 59.2274 39.6689C58.8308 39.8513 58.3953 39.9298 57.961 39.8974C57.574 39.9131 57.1887 39.8384 56.8348 39.6789C56.4809 39.5195 56.1679 39.2796 55.92 38.9779C55.3869 38.278 55.1196 37.4073 55.1666 36.5242C55.1149 35.5803 55.3975 34.6487 55.9633 33.8974C56.2194 33.5765 56.5458 33.3205 56.9165 33.1499C57.2872 32.9792 57.6921 32.8985 58.0989 32.9142C58.4767 32.9069 58.8521 32.9779 59.2019 33.1227C59.5518 33.2675 59.8688 33.4832 60.1337 33.7565L60.1368 33.7512ZM59.4791 38.1158C59.7398 37.5374 59.871 36.9076 59.863 36.2717C59.8825 35.7612 59.7871 35.253 59.5841 34.7855C59.4528 34.4955 59.2372 34.2532 58.9662 34.0909C58.6953 33.9286 58.3819 33.8541 58.068 33.8775C57.7882 33.8587 57.5089 33.9213 57.2629 34.0579C57.017 34.1945 56.8146 34.3995 56.6796 34.6488C56.3778 35.219 56.2288 35.8596 56.2473 36.5065C56.2259 37.1169 56.3757 37.721 56.6796 38.2484C56.8265 38.4793 57.032 38.666 57.2744 38.7888C57.5169 38.9117 57.7874 38.9661 58.0578 38.9466C58.3499 38.973 58.6429 38.9075 58.8971 38.7591C59.1512 38.6106 59.354 38.3864 59.4781 38.1169L59.4791 38.1158ZM100.945 33.7575C101.241 34.0943 101.467 34.488 101.611 34.9152C101.754 35.3424 101.811 35.7944 101.779 36.2445C101.816 37.1734 101.559 38.0897 101.046 38.86C100.783 39.213 100.438 39.4936 100.041 39.676C99.6436 39.8584 99.2077 39.9366 98.773 39.9036C98.3867 39.9191 98.002 39.8442 97.6488 39.6848C97.2956 39.5253 96.9833 39.2856 96.7361 38.9842C96.2027 38.2845 95.9349 37.4137 95.9817 36.5305C95.9317 35.587 96.2137 34.656 96.7773 33.9036C97.0337 33.5828 97.3603 33.3269 97.7312 33.1562C98.102 32.9856 98.507 32.9049 98.914 32.9205C99.2911 32.9131 99.6657 32.984 100.015 33.1288C100.364 33.2736 100.68 33.4894 100.944 33.7627L100.945 33.7575ZM100.294 38.1221C100.555 37.5436 100.685 36.9138 100.677 36.2779C100.697 35.7674 100.602 35.259 100.398 34.7918C100.267 34.5023 100.052 34.2603 99.7816 34.0981C99.5112 33.9358 99.1985 33.8611 98.8852 33.8838C98.6052 33.865 98.3258 33.9276 98.0797 34.0642C97.8335 34.2008 97.631 34.4058 97.4957 34.655C97.1952 35.2258 97.0462 35.866 97.0634 36.5128C97.0433 37.123 97.1931 37.7267 97.4957 38.2546C97.6422 38.4857 97.8474 38.6725 98.0898 38.7954C98.3321 38.9183 98.6026 38.9727 98.8728 38.9529C99.165 38.9784 99.4578 38.9126 99.7119 38.7642C99.9661 38.6159 100.169 38.3921 100.294 38.1231V38.1221ZM72.0203 35.6851C72.1221 35.6829 72.2214 35.6526 72.3076 35.5974C72.3937 35.5422 72.4634 35.4643 72.5091 35.372C72.562 35.2353 72.5859 35.0888 72.5791 34.9421C72.5918 34.7828 72.5631 34.623 72.4959 34.4786C72.4288 34.3341 72.3255 34.21 72.1963 34.1186C71.8629 33.9285 71.4831 33.8383 71.1011 33.8587C70.8834 33.8371 70.6637 33.8688 70.4606 33.9512C70.2575 34.0337 70.0769 34.1645 69.934 34.3326C69.7858 34.5652 69.6989 34.8326 69.6818 35.109H68.6989C68.6729 34.7836 68.728 34.4568 68.8591 34.1587C68.9902 33.8605 69.1932 33.6005 69.4493 33.4027C69.9477 33.0786 70.5297 32.9116 71.1217 32.9226C71.7507 32.8946 72.3745 33.0492 72.9198 33.3682C73.1446 33.517 73.3261 33.7239 73.4459 33.9675C73.5657 34.2111 73.6192 34.4826 73.6012 34.7542V38.5542C73.5956 38.6533 73.6196 38.7519 73.6701 38.837C73.7054 38.8761 73.7494 38.906 73.7985 38.9242C73.8476 38.9423 73.9003 38.9482 73.9521 38.9414C74.0005 38.9414 74.055 38.9414 74.1096 38.933C74.1722 38.9278 74.2345 38.9184 74.2959 38.9048V39.7272C74.1312 39.7753 74.0077 39.8076 73.9213 39.8233C73.8046 39.8349 73.6875 39.8405 73.5703 39.84C73.4148 39.8504 73.2594 39.8181 73.1204 39.7464C72.9815 39.6748 72.8642 39.5665 72.7809 39.4329C72.6839 39.2419 72.6231 39.0341 72.6018 38.8203C72.3546 39.1453 72.0379 39.409 71.6755 39.5916C71.2689 39.8134 70.8135 39.9272 70.3519 39.9224C70.0886 39.9316 69.8263 39.8862 69.581 39.7889C69.3357 39.6916 69.1126 39.5446 68.9254 39.3567C68.7432 39.1756 68.5999 38.9582 68.5044 38.7183C68.409 38.4784 68.3634 38.221 68.3706 37.9624C68.3556 37.6999 68.3966 37.4371 68.4909 37.1922C68.5853 36.9472 68.7306 36.7258 68.9171 36.543C69.3166 36.1872 69.8164 35.9681 70.3457 35.9168L72.0203 35.6851ZM69.8064 38.6919C70.0299 38.8755 70.3103 38.9731 70.5979 38.9675C70.9712 38.9651 71.3387 38.8732 71.6703 38.6992C71.9455 38.571 72.1765 38.3621 72.3334 38.0994C72.4902 37.8367 72.5658 37.5323 72.5503 37.2256V36.3301C72.3956 36.4277 72.2278 36.5022 72.0522 36.5514C71.8575 36.6066 71.659 36.6467 71.4583 36.6714L70.8233 36.7559C70.5231 36.7853 70.2311 36.8721 69.9628 37.0116C69.8041 37.1027 69.6738 37.2372 69.587 37.3998C69.5002 37.5624 69.4603 37.7466 69.4719 37.9311C69.4663 38.0756 69.4937 38.2194 69.5519 38.3513C69.6101 38.4833 69.6975 38.5999 69.8074 38.6919H69.8064ZM112.063 35.6851C112.165 35.6822 112.264 35.6515 112.349 35.5964C112.435 35.5413 112.504 35.4638 112.55 35.372C112.603 35.2354 112.627 35.0887 112.619 34.9421C112.632 34.7829 112.603 34.6232 112.536 34.4788C112.468 34.3344 112.365 34.2102 112.236 34.1186C111.904 33.9278 111.524 33.8377 111.142 33.8587C110.924 33.8375 110.705 33.8694 110.501 33.9519C110.298 34.0343 110.117 34.1648 109.974 34.3326C109.828 34.566 109.742 34.833 109.724 35.109H108.744C108.718 34.7837 108.772 34.4568 108.903 34.1586C109.034 33.8603 109.237 33.6004 109.493 33.4027C109.992 33.0783 110.574 32.9112 111.166 32.9226C111.794 32.8946 112.416 33.0492 112.96 33.3682C113.186 33.5161 113.368 33.7227 113.489 33.9664C113.61 34.2101 113.664 34.4822 113.645 34.7542V38.5542C113.639 38.653 113.662 38.7513 113.711 38.837C113.747 38.8766 113.792 38.9068 113.842 38.9249C113.891 38.9431 113.945 38.9487 113.997 38.9414C114.043 38.9414 114.095 38.9386 114.154 38.933C114.217 38.928 114.279 38.9186 114.341 38.9048V39.7272C114.177 39.7753 114.051 39.8076 113.965 39.8233C113.88 39.8389 113.76 39.84 113.614 39.84C113.459 39.8511 113.303 39.819 113.164 39.7473C113.025 39.6756 112.908 39.567 112.825 39.4329C112.727 39.2423 112.665 39.0344 112.644 38.8203C112.396 39.1447 112.08 39.4083 111.718 39.5916C111.31 39.8131 110.854 39.9269 110.392 39.9224C110.129 39.9316 109.867 39.8862 109.622 39.7889C109.377 39.6916 109.154 39.5446 108.967 39.3567C108.786 39.1754 108.643 38.958 108.548 38.7181C108.453 38.4781 108.407 38.2209 108.415 37.9624C108.399 37.7 108.44 37.4374 108.534 37.1924C108.628 36.9474 108.773 36.7259 108.959 36.543C109.358 36.1874 109.857 35.9682 110.386 35.9168L112.063 35.6851ZM109.847 38.6919C110.071 38.8755 110.351 38.9731 110.639 38.9675C111.013 38.9654 111.381 38.8735 111.713 38.6992C111.988 38.5708 112.219 38.3617 112.375 38.099C112.531 37.8362 112.606 37.532 112.59 37.2256V36.3301C112.437 36.4277 112.27 36.5023 112.095 36.5514C111.9 36.6066 111.701 36.6467 111.499 36.6714L110.863 36.7559C110.563 36.786 110.271 36.8727 110.003 37.0116C109.844 37.1025 109.714 37.237 109.627 37.3997C109.541 37.5624 109.502 37.7467 109.514 37.9311C109.507 38.0755 109.534 38.2194 109.592 38.3515C109.65 38.4836 109.737 38.6002 109.847 38.6919V38.6919ZM80.6473 30.6411H81.6971V39.9057H80.6473V30.6411ZM83.2924 32.9226H84.2938V34.175C84.5434 33.8373 84.865 33.5611 85.2345 33.3672C85.5794 33.1998 85.9576 33.1148 86.3399 33.1188C86.7005 33.0773 87.0651 33.1465 87.3865 33.3172C87.7079 33.488 87.9715 33.7526 88.1431 34.0769C88.3373 34.5509 88.4248 35.0629 88.3994 35.5756V39.9099H87.329V35.6434C87.3409 35.3214 87.2825 35.0007 87.1581 34.7041C87.0703 34.5093 86.9255 34.3467 86.7434 34.2382C86.5614 34.1297 86.3507 34.0807 86.1402 34.0977C85.9316 34.0913 85.7233 34.1177 85.5227 34.176C85.2221 34.2722 84.9578 34.4594 84.7652 34.7124C84.5984 34.8956 84.4802 35.1185 84.4214 35.3606C84.36 35.6798 84.3335 36.005 84.3422 36.3301V39.913H83.2893L83.2924 32.9226ZM89.8135 32.9226H90.815V34.175C91.0646 33.8373 91.3862 33.5612 91.7557 33.3672C92.1006 33.1997 92.4788 33.1147 92.8611 33.1188C93.2215 33.0777 93.5858 33.147 93.907 33.3177C94.2282 33.4885 94.4916 33.7529 94.6633 34.0769C94.8588 34.5506 94.9475 35.0626 94.9227 35.5756V39.9099H93.8512V35.6434C93.8641 35.3212 93.8054 35.0002 93.6793 34.7041C93.5925 34.5086 93.4479 34.3452 93.2656 34.2366C93.0832 34.128 92.8722 34.0795 92.6614 34.0977C92.4549 34.0915 92.2486 34.1179 92.0501 34.176C91.7476 34.2713 91.4813 34.4585 91.2874 34.7124C91.1226 34.8965 91.0055 35.1192 90.9467 35.3606C90.8844 35.6797 90.8572 36.0049 90.8654 36.3301V39.913H89.8156L89.8135 32.9226ZM103.296 32.9299L105.111 38.6053L106.998 32.9299H108.212L105.659 39.9057H104.507L102.004 32.9299H103.296ZM115.338 30.6411H116.406V32.9226H117.405V33.8066H116.406V38.4498C116.394 38.5379 116.409 38.6275 116.448 38.7071C116.487 38.7867 116.549 38.8526 116.625 38.8965C116.756 38.9487 116.896 38.9711 117.037 38.9622H117.201C117.27 38.9589 117.339 38.9516 117.407 38.9403V39.7857C117.284 39.8245 117.157 39.8521 117.028 39.8681C116.887 39.8846 116.745 39.8926 116.603 39.8921C116.418 39.9144 116.23 39.8906 116.055 39.8228C115.881 39.755 115.725 39.6452 115.602 39.5029C115.416 39.2008 115.325 38.8491 115.34 38.4936V33.7972H114.493V32.9132H115.34L115.338 30.6411ZM122.939 33.7648C123.234 34.1027 123.46 34.4969 123.603 34.9243C123.745 35.3518 123.803 35.8038 123.771 36.2539C123.806 37.1797 123.551 38.0931 123.043 38.8631C122.78 39.2147 122.433 39.4938 122.036 39.675C121.639 39.8562 121.203 39.9337 120.769 39.9005C120.382 39.9163 119.997 39.8419 119.644 39.683C119.29 39.5241 118.978 39.285 118.73 38.9842C118.197 38.2835 117.929 37.4122 117.975 36.5284C117.925 35.585 118.206 34.6542 118.768 33.9005C119.025 33.58 119.353 33.3244 119.724 33.1538C120.096 32.9832 120.501 32.9023 120.909 32.9173C121.286 32.9108 121.66 32.9821 122.009 33.1269C122.358 33.2717 122.674 33.4869 122.938 33.7596L122.939 33.7648ZM122.287 38.119C122.549 37.5412 122.68 36.9109 122.67 36.2748C122.691 35.7642 122.596 35.2556 122.391 34.7886C122.26 34.4994 122.045 34.2575 121.775 34.0952C121.504 33.933 121.192 33.8582 120.879 33.8807C120.599 33.8619 120.319 33.9245 120.073 34.0611C119.827 34.1977 119.625 34.4027 119.489 34.6519C119.187 35.2221 119.038 35.8626 119.056 36.5096C119.034 37.1203 119.184 37.7246 119.489 38.2515C119.636 38.4833 119.841 38.6706 120.084 38.7937C120.327 38.9168 120.598 38.9711 120.868 38.9508C121.161 38.9756 121.453 38.9088 121.707 38.7595C121.96 38.6102 122.162 38.3855 122.286 38.1158L122.287 38.119ZM124.946 32.9142H125.941V34.1666C126.094 33.8657 126.304 33.5978 126.558 33.3776C126.702 33.2282 126.874 33.1098 127.064 33.0296C127.254 32.9494 127.458 32.9091 127.663 32.9111C127.693 32.9108 127.723 32.9132 127.752 32.9184C127.8 32.9184 127.883 32.9309 128 32.9445V34.0852C127.94 34.0732 127.878 34.0655 127.817 34.0622H127.659C127.428 34.046 127.195 34.0847 126.981 34.1753C126.767 34.2659 126.576 34.4058 126.424 34.5841C126.142 34.9961 125.994 35.4872 126 35.9888V39.9026H124.955L124.946 32.9142ZM66.8782 33.7669C66.6423 33.4909 66.3488 33.2717 66.0189 33.1251C65.689 32.9785 65.3311 32.9083 64.9711 32.9194C64.607 32.919 64.2479 33.0059 63.9233 33.173C63.5975 33.3474 63.3158 33.5956 63.0999 33.8984V30.6338H62.0707V39.8984H63.0999V38.9121C63.2587 39.1466 63.4513 39.3556 63.6712 39.5321C64.0262 39.7836 64.4517 39.9124 64.8846 39.8995C65.2779 39.9126 65.6679 39.8237 66.0178 39.641C66.3676 39.4584 66.6655 39.1881 66.8834 38.8558C67.3873 38.09 67.6395 37.1822 67.6038 36.2623C67.668 35.3675 67.4094 34.4796 66.8762 33.7638L66.8782 33.7669ZM66.096 38.1972C65.9685 38.4244 65.7816 38.6115 65.5558 38.7377C65.33 38.8638 65.0742 38.9242 64.8167 38.9121C64.4743 38.9315 64.1352 38.8348 63.8531 38.6371C63.5709 38.4394 63.3617 38.1521 63.2584 37.8205C63.0943 37.3361 63.0189 36.8253 63.0361 36.3134C62.9751 35.6509 63.1699 34.9902 63.5796 34.4703C63.7409 34.2939 63.9364 34.1533 64.1539 34.0572C64.3715 33.9611 64.6062 33.9117 64.8435 33.912C65.093 33.8998 65.3411 33.9562 65.5615 34.0753C65.782 34.1943 65.9667 34.3716 66.096 34.5883C66.3973 35.1101 66.5462 35.708 66.5252 36.3124C66.5541 36.9682 66.4057 37.6196 66.096 38.1962V38.1972ZM76.5149 38.884C76.4366 38.8415 76.3725 38.7763 76.3309 38.6968C76.2893 38.6172 76.272 38.5269 76.2813 38.4373V30.6286H75.2325V38.4947C75.2173 38.8504 75.3092 39.2024 75.496 39.5039C75.6189 39.6461 75.7741 39.7559 75.9482 39.8237C76.1223 39.8915 76.3101 39.9154 76.4954 39.8932C76.5859 39.8932 76.6703 39.8932 76.7485 39.8817V38.9424C76.6695 38.9374 76.592 38.9176 76.52 38.884H76.5149ZM54.3134 38.884C54.2353 38.8415 54.1715 38.7762 54.1304 38.6966C54.0893 38.6169 54.0728 38.5266 54.0829 38.4373V30.6286H53.0259V38.4947C53.0118 38.8499 53.1024 39.2012 53.2862 39.5039C53.4102 39.646 53.5662 39.7556 53.7409 39.8233C53.9156 39.8911 54.1039 39.9151 54.2897 39.8932C54.3783 39.8932 54.4616 39.8932 54.5419 39.8817V38.9424C54.4628 38.9373 54.3854 38.9175 54.3134 38.884V38.884ZM7.30341 30.639V31.7422H4.26925V39.8828H3.03419V31.7422H0V30.639H7.30341ZM12.8921 32.9069V37.4176C12.8821 37.708 12.9344 37.9972 13.0455 38.2651C13.1429 38.4638 13.2975 38.6279 13.4887 38.7358C13.68 38.8437 13.899 38.8902 14.1169 38.8694C14.4517 38.8891 14.7835 38.7949 15.0594 38.6017C15.3354 38.4084 15.5398 38.1272 15.6402 37.8027C15.8065 37.3045 15.8808 36.7795 15.8594 36.2539V32.9038H16.9627V39.6772H15.9191L15.9335 38.6846C15.8029 38.9328 15.6256 39.1526 15.4117 39.3317C14.9903 39.6887 14.4559 39.8792 13.907 39.8681C13.5359 39.91 13.1609 39.8409 12.8281 39.6693C12.4952 39.4978 12.2191 39.2314 12.0338 38.9028C11.8333 38.4711 11.7397 37.9965 11.761 37.5199V32.9038L12.8921 32.9069ZM19.0932 37.5804C19.1021 37.8831 19.1995 38.1763 19.3732 38.4227C19.5627 38.619 19.7941 38.7687 20.0496 38.8603C20.3051 38.9518 20.5779 38.9828 20.847 38.9508C21.2298 38.9605 21.6085 38.8695 21.9463 38.6867C22.0964 38.611 22.2216 38.4926 22.3065 38.3461C22.3915 38.1995 22.4326 38.031 22.4248 37.8612C22.4258 37.7286 22.3905 37.5984 22.3229 37.4849C22.2553 37.3715 22.1581 37.2792 22.042 37.2183C21.7346 37.0807 21.4133 36.9778 21.0838 36.9114L20.1955 36.6912C19.7551 36.6005 19.3305 36.4436 18.9358 36.2258C18.7153 36.1065 18.5315 35.928 18.4045 35.7099C18.2774 35.4917 18.2119 35.2423 18.2153 34.989C18.2068 34.7014 18.2635 34.4157 18.3811 34.1539C18.4987 33.892 18.674 33.6611 18.8936 33.4788C19.4174 33.0726 20.067 32.8691 20.7256 32.9048C21.1288 32.8668 21.5351 32.9258 21.9116 33.0771C22.288 33.2283 22.624 33.4675 22.8921 33.7752C23.1592 34.1115 23.3012 34.5323 23.2935 34.964H22.2519C22.2306 34.7172 22.1379 34.4823 21.9854 34.2887C21.8018 34.1269 21.5874 34.0051 21.3554 33.9308C21.1235 33.8565 20.879 33.8312 20.6371 33.8566C20.2972 33.8343 19.9585 33.9165 19.6655 34.0925C19.5617 34.1605 19.4769 34.2543 19.4193 34.3651C19.3616 34.4758 19.333 34.5998 19.3361 34.725C19.3381 34.8678 19.3797 35.0072 19.4562 35.1271C19.5326 35.2471 19.6408 35.3428 19.7684 35.4034C19.9984 35.5326 20.2482 35.6219 20.5074 35.6674L21.2495 35.8563C21.8159 35.955 22.3639 36.1423 22.8736 36.4115C23.0859 36.5545 23.257 36.7521 23.3695 36.984C23.482 37.2159 23.5317 37.474 23.5138 37.7318C23.5163 38.0182 23.4577 38.3018 23.3418 38.563C23.226 38.8243 23.0557 39.0569 22.8427 39.2451C22.2655 39.7171 21.5316 39.9465 20.7925 39.8859C20.4159 39.925 20.0354 39.886 19.6741 39.7714C19.3128 39.6568 18.9782 39.4688 18.6908 39.219C18.2784 38.7736 18.0434 38.1891 18.0311 37.5783L19.0932 37.5804ZM34.4503 36.2602C34.4155 37.1787 34.6676 38.0849 35.1708 38.8495C35.3902 39.1803 35.6889 39.4491 36.0389 39.6306C36.389 39.812 36.7787 39.9003 37.1716 39.8869C37.6034 39.9009 38.028 39.7727 38.382 39.5216C38.604 39.3464 38.7977 39.1373 38.9563 38.9017V39.8869H39.9855V30.6265H38.9563V33.89C38.7427 33.5852 38.4604 33.3365 38.1329 33.1647C37.8086 32.9969 37.4493 32.9103 37.0852 32.9121C36.7262 32.9007 36.3693 32.9706 36.0404 33.1169C35.7115 33.2631 35.419 33.482 35.1842 33.7575C34.6451 34.473 34.384 35.3644 34.4503 36.2623V36.2602ZM35.5341 36.3134C35.5129 35.7091 35.6587 35.1109 35.9551 34.5862C36.0857 34.37 36.2711 34.1934 36.4919 34.0746C36.7128 33.9558 36.961 33.8993 37.2107 33.9109C37.4482 33.9095 37.6834 33.9586 37.9011 34.0549C38.1188 34.1513 38.3141 34.2928 38.4746 34.4703C38.8845 34.9899 39.0783 35.6512 39.015 36.3134C39.033 36.8254 38.9576 37.3363 38.7927 37.8205C38.6898 38.1505 38.4816 38.4365 38.2007 38.6332C37.9199 38.8299 37.5824 38.9262 37.2416 38.9069C36.9833 38.9193 36.7266 38.8593 36.4997 38.7336C36.2728 38.6078 36.0844 38.4212 35.9551 38.1941C35.6524 37.6171 35.507 36.9685 35.5341 36.3155V36.3134ZM24.8929 30.6307H25.9541V32.91H26.9524V33.7951H25.9541V38.4373C25.9433 38.526 25.9593 38.6159 26.0001 38.6952C26.0409 38.7744 26.1046 38.8392 26.1826 38.8808C26.311 38.934 26.4497 38.9564 26.5881 38.9466H26.7538C26.8204 38.9434 26.8867 38.9361 26.9524 38.9247V39.7857C26.8296 39.8232 26.704 39.8501 26.5768 39.8661C26.443 39.8786 26.3061 39.8901 26.1558 39.8901C25.9696 39.913 25.7808 39.8898 25.6054 39.8223C25.4301 39.7549 25.2735 39.6452 25.1492 39.5029C24.9694 39.199 24.8803 38.8488 24.8929 38.4947V33.7982H24.0397V32.9132H24.8929V30.6307ZM32.1047 33.2398C32.5041 33.4262 32.8455 33.7201 33.0918 34.0894C33.3189 34.4416 33.4692 34.8391 33.5323 35.2552C33.6113 35.7351 33.6458 36.2215 33.6352 36.7079H28.8626C28.8524 37.2822 29.0154 37.8459 29.3299 38.3235C29.4896 38.5291 29.6966 38.6918 29.9328 38.7974C30.1689 38.9029 30.427 38.9481 30.6844 38.9288C30.9394 38.9403 31.1938 38.8951 31.4297 38.7963C31.6657 38.6975 31.8775 38.5475 32.0502 38.3569C32.2409 38.1327 32.3813 37.8692 32.4619 37.5846H33.5498C33.5001 37.8691 33.403 38.143 33.2626 38.3945C33.117 38.663 32.9344 38.909 32.7202 39.1251C32.3776 39.4581 31.9497 39.687 31.4851 39.7857C31.1922 39.857 30.8919 39.892 30.5907 39.8901C30.2035 39.8947 29.8196 39.8166 29.464 39.6609C29.1085 39.5052 28.7893 39.2753 28.5271 38.9862C27.9293 38.2978 27.625 37.397 27.6811 36.4815C27.6399 35.5436 27.944 34.6237 28.5344 33.9005C28.8092 33.5768 29.1519 33.3195 29.5374 33.1474C29.923 32.9753 30.3416 32.8928 30.7626 32.9059C31.2324 32.9079 31.695 33.0223 32.113 33.2398H32.1047ZM32.5061 35.8333C32.4829 35.4331 32.3777 35.0421 32.1974 34.6853C32.0483 34.4196 31.8278 34.2023 31.5615 34.0589C31.2953 33.9155 30.9943 33.8519 30.6937 33.8754C30.4563 33.8712 30.2207 33.9185 30.0029 34.0143C29.785 34.11 29.59 34.252 29.4308 34.4307C29.0834 34.8142 28.8899 35.3157 28.8884 35.8365L32.5061 35.8333ZM7.59882 32.9111H8.58995V34.1635C8.74295 33.8663 8.94603 33.5986 9.19 33.3724C9.48621 33.0783 9.88293 32.9116 10.2974 32.9069C10.319 32.9069 10.3499 32.9069 10.4004 32.9142C10.4508 32.9215 10.5383 32.9288 10.6484 32.9382V34.08C10.5906 34.0678 10.5322 34.0591 10.4735 34.0539H10.2974C10.068 34.04 9.83841 34.0798 9.62656 34.1703C9.4147 34.2608 9.22623 34.3995 9.07576 34.5757C8.79499 34.9901 8.64463 35.4809 8.64451 35.9836V39.8932H7.60293L7.59882 32.9111Z" fill="#081337"/>
</svg>