<svg xmlns="http://www.w3.org/2000/svg" xmlns:xlink="http://www.w3.org/1999/xlink" version="1.1" id="layer" x="0px" y="0px" style="enable-background:new 0 0 652 652;" xml:space="preserve" viewBox="27.2 300.9 599.7 51.75">
<style type="text/css">
	.st0{fill:#DA291C;}
</style>
<path class="st0" d="M57.7,327.4L57.7,327.4c-1.7-0.9-3.4-1.7-5.2-2.4c-2-0.7-4-1.3-5.6-1.8c-1.8-0.5-3.7-1.1-5.4-1.8  c-1.3-0.5-2.5-1.1-3.6-1.8c-1.2-0.7-2.2-1.6-2.9-2.8c-0.6-1-0.9-2.1-0.9-3.3c0-1.3,0.3-2.6,1-3.6c0.9-1.2,2.1-2.1,3.4-2.8  c1.1-0.5,2.3-0.9,3.5-1.2c2.8-0.6,5.7-0.6,8.5,0c1.4,0.3,2.7,0.7,4,1.3c0.9,0.4,1.8,0.9,2.6,1.5c0.8,0.6,1.6,1.3,2.3,2l1.2,1.2  l3.2-3.1l-1.3-1.3c-1-1-2.1-1.8-3.2-2.6c-1.1-0.8-2.3-1.4-3.5-2c-1.5-0.6-3.1-1-4.7-1.3c-3.5-0.7-7.1-0.6-10.6,0.2  c-1.7,0.4-3.4,1.1-4.9,2c-1.6,0.9-2.9,2-4,3.4c-1.4,1.9-2.1,4.1-2,6.4c0,1.9,0.4,3.7,1.3,5.3c1,1.6,2.4,3,4,4.1  c1.6,1.1,3.4,2,5.3,2.6c1.8,0.7,3.7,1.2,5.3,1.7l0.8,0.2c1.2,0.4,2.5,0.7,3.7,1.1c1.2,0.4,2.6,0.9,3.6,1.3c2,0.8,3.8,2,5.2,3.6  c1.1,1.3,1.7,3,1.6,4.7c0,1.4-0.4,2.9-1.1,4.1c-0.8,1.3-2,2.3-3.4,3c-1.4,0.7-2.8,1.3-4.3,1.6c-3.4,0.8-6.9,0.8-10.3-0.1  c-1.5-0.4-3-1-4.4-1.7c-1-0.6-1.9-1.2-2.7-2c-0.8-0.7-1.5-1.6-2-2.5l-1-1.2l-4,2.1l0.9,1.6c0.8,1.3,1.7,2.5,2.8,3.6  c1.1,1.1,2.4,2.1,3.8,2.8c1.7,0.9,3.6,1.6,5.5,2.1c2,0.5,4.1,0.7,6.1,0.7c2.2,0,4.3-0.3,6.4-0.8c1.9-0.4,3.8-1.2,5.5-2.1  c2-1.1,3.7-2.7,4.9-4.6c1.1-1.9,1.7-4.1,1.7-6.3c0-2.3-0.6-4.5-1.8-6.4C61.6,330.2,59.8,328.6,57.7,327.4z"/>
<path class="st0" d="M111.5,341.2l-0.6,0.6c-2,2-4.3,3.5-6.8,4.6c-5,2-10.5,2.1-15.5,0.3c-2.3-0.9-4.5-2.1-6.5-3.7  c-2.3-2-4.2-4.5-5.5-7.3c-1.3-2.8-2-5.8-2-8.9c0-3.5,0.9-6.9,2.5-10c1.7-3.1,4.1-5.7,6.9-7.7c1.7-1.2,3.6-2.1,5.6-2.7  c2-0.6,4.1-0.9,6.1-0.9c2.8,0,5.6,0.5,8.2,1.6c2.6,1.1,5,2.7,6.9,4.7l0.6,0.6l2.6-2.6l0.5-0.6l-0.6-0.6c-2.4-2.4-5.2-4.4-8.3-5.7  c-3.1-1.3-6.5-2-9.9-2c-2.4,0-4.8,0.3-7,1c-11,3.2-18.6,13.3-18.6,24.8c0,3.8,0.8,7.6,2.5,11c1.6,3.4,4,6.4,6.9,8.9  c2.3,1.9,4.9,3.3,7.6,4.4c2.7,1,5.6,1.5,8.6,1.5c3.4,0,6.7-0.7,9.9-2c3.1-1.3,6-3.2,8.4-5.6l0.6-0.7l-2.6-2.6L111.5,341.2z"/>
<polygon class="st0" points="168.7,301.7 168.7,352.1 173.2,352.1 173.2,310.7 202.5,352.1 204.7,352.1 208.1,352 172.4,301.7 "/>
<polygon class="st0" points="208,345 208,301.7 203.4,301.7 203.5,338.7 "/>
<rect x="123.8" y="301.7" class="st0" width="4.5" height="50.4"/>
<polygon class="st0" points="132.4,352.1 158.1,352.1 158.1,347.6 136.9,347.6 "/>
<rect x="132.5" y="324.6" class="st0" width="25.6" height="4.5"/>
<polygon class="st0" points="158.1,306.3 158.1,301.7 132.4,301.7 136.9,306.3 "/>
<rect x="215.8" y="301.7" class="st0" width="45.4" height="4.5"/>
<rect x="236.3" y="310.5" class="st0" width="4.5" height="41.5"/>
<path class="st0" d="M295.6,329.1c2.1,0,4.1-0.5,6-1.4c1.9-0.9,3.6-2.3,4.8-4c0.9-1.2,1.6-2.6,2.1-4c0.5-1.4,0.7-2.9,0.7-4.4  c0-1.8-0.3-3.5-1-5.1c-0.7-1.6-1.6-3.1-2.8-4.4c-2.6-2.6-6.2-4-9.8-4h-17.5l4.4,4.5h13c1.3,0,2.6,0.3,3.8,0.8  c1.2,0.5,2.3,1.3,3.1,2.3c0.7,0.8,1.3,1.8,1.7,2.8c0.4,1,0.6,2.1,0.6,3.2c0,1.1-0.2,2.1-0.5,3.1c-0.4,1-0.9,1.9-1.5,2.7  c-0.9,1.1-2,1.9-3.2,2.5c-1.2,0.6-2.6,0.9-4,0.9h-17.4v4.5H289l16.2,22.9h5.5l-16.4-22.9H295.6z"/>
<rect x="269.3" y="301.7" class="st0" width="4.5" height="50.4"/>
<path class="st0" d="M525,308.7c-2.4-2.4-5.2-4.3-8.4-5.6c-3.1-1.3-6.5-2-9.9-2c-3.4,0.1-6.7,0.7-9.9,2c-3.1,1.3-6,3.2-8.4,5.6  c-2.4,2.4-4.3,5.2-5.5,8.4c-1.3,3.1-2,6.5-2,9.9c0.1,3.4,0.7,6.7,2,9.9c1.3,3.1,3.2,5.9,5.5,8.3c2.4,2.4,5.2,4.3,8.4,5.5  c6.3,2.6,13.4,2.6,19.7,0c3.1-1.3,6-3.2,8.4-5.5c2.4-2.4,4.3-5.2,5.5-8.4c1.3-3.1,2-6.5,2-9.9c-0.1-3.4-0.7-6.7-2-9.9  C529.3,313.9,527.4,311.1,525,308.7z M528,326.9c0,2.8-0.5,5.5-1.6,8c-2.2,5.2-6.3,9.3-11.4,11.5c-5.2,2.1-11,2.1-16.2,0  c-5.2-2.2-9.3-6.2-11.6-11.4c-1.1-2.5-1.6-5.2-1.6-8c0-2.8,0.5-5.5,1.6-8c2.2-5.2,6.3-9.3,11.5-11.5c5.2-2.2,11-2.2,16.1,0  c5.2,2.2,9.3,6.3,11.5,11.5C527.4,321.5,528,324.2,528,326.9L528,326.9z"/>
<path class="st0" d="M572.6,333.9c0,1.9-0.4,3.8-1.1,5.5c-0.7,1.8-1.8,3.3-3.2,4.6c-1.3,1.3-2.8,2.3-4.5,2.9  c-5.3,2.1-11.3,0.8-15.3-3.2c-1.3-1.3-2.4-2.9-3.1-4.7c-0.7-1.7-1.1-3.6-1.1-5.4v-31.9h-4.5v32.1c0,2.6,0.5,5.3,1.6,7.7  c1.1,2.4,2.7,4.6,4.6,6.3c1.7,1.5,3.7,2.7,5.8,3.5c2.1,0.8,4.4,1.2,6.6,1.2c2.5,0,4.9-0.5,7.2-1.4c2.3-0.9,4.3-2.3,6-4  c1.7-1.7,3.1-3.8,4.1-6c0.9-2.3,1.4-4.7,1.4-7.2v-32.3h-4.5L572.6,333.9z"/>
<rect x="436.2" y="301.7" class="st0" width="4.5" height="50.4"/>
<rect x="586.8" y="301.7" class="st0" width="4.5" height="50.4"/>
<path class="st0" d="M405.2,329.1H424c-0.2,2.4-0.9,4.6-2,6.7c-1.1,2.4-2.6,4.5-4.5,6.3c-1.9,1.9-4.2,3.3-6.7,4.2  c-4.8,1.9-10.2,2-15.1,0.2c-2.3-0.8-4.4-2-6.3-3.5c-2.4-2-4.3-4.4-5.6-7.3c-1.3-2.8-2-5.9-2-9c0.1-3.1,0.7-6.1,2-8.9  c1.3-2.8,3.2-5.3,5.5-7.3c1.9-1.6,4-2.8,6.3-3.7c5.5-2,11.7-1.6,16.9,1c3,1.5,5.6,3.7,7.6,6.4l0.8,1.1l3-2.1l0.6-0.5l-0.4-0.6  c-6.6-9.5-18.7-13.5-29.7-9.7c-2.7,1-5.3,2.4-7.6,4.2c-3,2.4-5.5,5.5-7.2,9c-1.7,3.5-2.5,7.4-2.5,11.2c0,3.8,0.8,7.5,2.4,10.9  c1.6,3.4,3.9,6.4,6.7,8.9c4.6,3.9,10.5,6,16.5,6c3.2,0,6.5-0.6,9.5-1.8c3-1.2,5.8-2.9,8.2-5.1c2.6-2.4,4.6-5.3,6-8.6  c1.4-3.2,2.2-6.7,2.2-10.2v-2.3h-27.9L405.2,329.1z"/>
<rect x="318.5" y="301.7" class="st0" width="4.5" height="50.4"/>
<polygon class="st0" points="327.2,352.1 353,352.1 353,347.6 331.7,347.6 "/>
<rect x="327.4" y="324.6" class="st0" width="25.6" height="4.5"/>
<polygon class="st0" points="353,306.3 353,301.7 327.2,301.7 331.7,306.3 "/>
<path class="st0" d="M462.4,329.1c2.1,0,4.1-0.5,6-1.4c1.9-0.9,3.6-2.3,4.8-4c0.9-1.2,1.6-2.6,2.1-4c0.5-1.4,0.7-2.9,0.7-4.4  c0-1.8-0.3-3.5-1-5.1c-1.4-3.3-4-5.9-7.3-7.2c-1.7-0.7-3.5-1.1-5.3-1.1H445l4.4,4.5h13c1.3,0,2.6,0.3,3.8,0.8  c1.2,0.5,2.3,1.3,3.1,2.3c0.7,0.8,1.3,1.8,1.7,2.8c0.4,1,0.6,2.1,0.6,3.2c0,1.1-0.2,2.1-0.5,3.1c-0.4,1-0.9,1.9-1.5,2.7  c-0.9,1.1-2,1.9-3.2,2.5c-1.2,0.6-2.6,0.9-4,0.9H445v4.5h10.8l16.2,22.9h5.5l-16.3-22.9L462.4,329.1z"/>
<path class="st0" d="M625.9,310.3c-1.4-3.4-4-6-7.4-7.5c-1.7-0.7-3.5-1.1-5.3-1.1h-17.5l4.4,4.5h13.1c1.3,0,2.6,0.3,3.8,0.8  c1.2,0.5,2.3,1.3,3.1,2.3c0.7,0.8,1.3,1.8,1.7,2.8c0.4,1,0.6,2.1,0.6,3.2c0,1.1-0.2,2.1-0.5,3.1c-0.4,1-0.9,1.9-1.5,2.7  c-0.9,1.1-2,1.9-3.2,2.5c-1.2,0.6-2.6,0.9-4,0.9h-17.5v4.5h17.5c2.1,0,4.1-0.5,6-1.4c1.9-0.9,3.6-2.3,4.8-4c0.9-1.2,1.6-2.6,2.1-4  c0.5-1.4,0.8-2.8,0.8-4.3C626.9,313.7,626.6,312,625.9,310.3z"/>
</svg>